P3
# Created by GIMP version 2.10.8 PNM plug-in
20 20
255
1
1
1
1
1
1
1
1
1
1
1
1
1
1
1
1
1
1
146
146
146
146
146
146
146
146
146
146
146
146
146
146
146
146
146
146
146
146
146
146
146
146
1
1
1
1
1
1
1
1
1
1
1
1
1
1
1
1
1
1
1
1
1
1
1
1
1
1
1
1
1
1
146
146
146
146
146
146
146
146
146
146
146
146
85
85
85
85
85
85
85
85
85
85
85
85
146
146
146
146
146
146
146
146
146
146
146
146
1
1
1
1
1
1
1
1
1
1
1
1
1
1
1
1
1
1
1
1
1
146
146
146
146
146
146
85
85
85
85
85
85
85
85
85
85
85
85
85
85
85
85
85
85
85
85
85
85
85
85
85
85
85
85
85
85
146
146
146
146
146
146
1
1
1
1
1
1
1
1
1
1
1
1
1
1
1
146
146
146
146
146
146
85
85
85
85
85
85
85
85
85
85
85
85
85
85
85
85
85
85
85
85
85
85
85
85
85
85
85
85
85
85
85
85
85
85
85
85
146
146
146
146
146
146
1
1
1
1
1
1
1
1
1
146
146
146
146
146
146
85
85
85
85
85
85
85
85
85
85
85
85
85
85
85
0
0
0
203
203
203
203
203
203
0
0
0
85
85
85
85
85
85
85
85
85
85
85
85
85
85
85
146
146
146
146
146
146
1
1
1
1
1
1
146
146
146
85
85
85
85
85
85
85
85
85
85
85
85
85
85
85
255
255
0
0
0
0
203
203
203
203
203
203
0
0
0
255
255
0
85
85
85
85
85
85
85
85
85
85
85
85
85
85
85
146
146
146
1
1
1
146
146
146
146
146
146
85
85
85
85
85
85
85
85
85
85
85
85
0
65
255
0
170
170
0
0
0
203
203
203
203
203
203
0
0
0
0
170
170
0
65
255
85
85
85
85
85
85
85
85
85
85
85
85
146
146
146
146
146
146
146
146
146
146
146
146
85
85
85
85
85
85
85
85
85
255
255
0
0
170
170
0
170
170
0
0
0
203
203
203
203
203
203
0
0
0
0
170
170
0
170
170
255
255
0
85
85
85
85
85
85
85
85
85
146
146
146
146
146
146
146
146
146
85
85
85
85
85
85
85
85
85
85
85
85
255
255
0
0
170
170
0
170
170
0
0
0
203
203
203
203
203
203
0
0
0
0
170
170
0
170
170
255
255
0
85
85
85
85
85
85
85
85
85
85
85
85
146
146
146
146
146
146
85
85
85
85
85
85
85
85
85
85
85
85
255
255
0
0
170
170
0
170
170
0
0
0
203
203
203
203
203
203
0
0
0
0
170
170
0
170
170
255
255
0
85
85
85
85
85
85
85
85
85
85
85
85
146
146
146
146
146
146
85
85
85
85
85
85
85
85
85
85
85
85
255
255
0
0
170
170
0
170
170
0
0
0
203
203
203
203
203
203
0
0
0
0
170
170
0
170
170
255
255
0
85
85
85
85
85
85
85
85
85
85
85
85
146
146
146
146
146
146
85
85
85
85
85
85
85
85
85
85
85
85
255
255
0
0
170
170
0
170
170
0
0
0
203
203
203
203
203
203
0
0
0
0
170
170
0
170
170
255
255
0
85
85
85
85
85
85
85
85
85
85
85
85
146
146
146
146
146
146
146
146
146
85
85
85
85
85
85
85
85
85
255
255
0
0
170
170
0
170
170
0
0
0
203
203
203
203
203
203
0
0
0
0
170
170
0
170
170
255
255
0
85
85
85
85
85
85
85
85
85
146
146
146
146
146
146
146
146
146
146
146
146
85
85
85
85
85
85
85
85
85
85
85
85
0
65
255
0
170
170
0
170
170
0
0
0
0
0
0
0
170
170
0
170
170
0
65
255
85
85
85
85
85
85
85
85
85
85
85
85
146
146
146
146
146
146
1
1
1
146
146
146
85
85
85
85
85
85
85
85
85
85
85
85
85
85
85
255
255
0
255
255
0
255
255
0
255
255
0
255
255
0
255
255
0
85
85
85
85
85
85
85
85
85
85
85
85
85
85
85
146
146
146
1
1
1
1
1
1
146
146
146
146
146
146
85
85
85
85
85
85
85
85
85
85
85
85
85
85
85
85
85
85
85
85
85
85
85
85
85
85
85
85
85
85
85
85
85
85
85
85
85
85
85
85
85
85
146
146
146
146
146
146
1
1
1
1
1
1
1
1
1
146
146
146
146
146
146
85
85
85
85
85
85
85
85
85
85
85
85
85
85
85
85
85
85
85
85
85
85
85
85
85
85
85
85
85
85
85
85
85
85
85
85
146
146
146
146
146
146
1
1
1
1
1
1
1
1
1
1
1
1
1
1
1
146
146
146
146
146
146
85
85
85
85
85
85
85
85
85
85
85
85
85
85
85
85
85
85
85
85
85
85
85
85
85
85
85
85
85
85
146
146
146
146
146
146
1
1
1
1
1
1
1
1
1
1
1
1
1
1
1
1
1
1
1
1
1
146
146
146
146
146
146
146
146
146
146
146
146
85
85
85
85
85
85
85
85
85
85
85
85
146
146
146
146
146
146
146
146
146
146
146
146
1
1
1
1
1
1
1
1
1
1
1
1
1
1
1
1
1
1
1
1
1
1
1
1
1
1
1
1
1
1
146
146
146
146
146
146
146
146
146
146
146
146
146
146
146
146
146
146
146
146
146
146
146
146
1
1
1
1
1
1
1
1
1
1
1
1
1
1
1
1
1
1
