P3
# Created by GIMP version 2.10.8 PNM plug-in
17 20
255
1
1
1
1
1
1
1
1
1
1
1
1
1
1
1
1
1
1
1
1
1
170
85
0
170
85
0
170
85
0
170
85
0
1
1
1
1
1
1
1
1
1
1
1
1
1
1
1
1
1
1
1
1
1
1
1
1
1
1
1
1
1
1
1
1
1
1
1
1
170
85
0
170
85
0
170
85
0
170
85
0
170
85
0
170
85
0
1
1
1
1
1
1
1
1
1
1
1
1
1
1
1
1
1
1
1
1
1
1
1
1
1
1
1
1
1
1
170
85
0
170
85
0
255
158
125
255
158
125
255
158
125
255
158
125
170
85
0
170
85
0
1
1
1
1
1
1
1
1
1
1
1
1
1
1
1
1
1
1
1
1
1
1
1
1
1
1
1
170
85
0
255
158
125
0
65
255
255
158
125
255
158
125
0
65
255
255
158
125
170
85
0
1
1
1
1
1
1
1
1
1
1
1
1
1
1
1
1
1
1
1
1
1
1
1
1
1
1
1
170
85
0
255
158
125
255
158
125
255
158
125
255
158
125
255
158
125
255
158
125
170
85
0
1
1
1
1
1
1
1
1
1
1
1
1
1
1
1
1
1
1
1
1
1
1
1
1
1
1
1
1
1
1
255
158
125
255
0
0
255
158
125
255
158
125
255
0
0
255
158
125
1
1
1
1
1
1
1
1
1
1
1
1
1
1
1
1
1
1
1
1
1
1
1
1
1
1
1
1
1
1
1
1
1
255
158
125
255
158
125
255
0
0
255
0
0
255
158
125
255
158
125
1
1
1
1
1
1
1
1
1
1
1
1
1
1
1
1
1
1
1
1
1
1
1
1
1
1
1
1
1
1
1
1
1
1
1
1
255
158
125
255
158
125
255
158
125
255
158
125
1
1
1
1
1
1
1
1
1
1
1
1
1
1
1
1
1
1
255
158
125
255
158
125
255
158
125
1
1
1
1
1
1
1
1
1
1
1
1
1
1
1
255
158
125
255
158
125
1
1
1
1
1
1
1
1
1
1
1
1
255
158
125
255
158
125
255
158
125
1
1
1
255
158
125
255
158
125
255
158
125
1
1
1
1
1
1
1
1
1
1
1
1
255
158
125
255
158
125
1
1
1
1
1
1
1
1
1
255
158
125
255
158
125
255
158
125
1
1
1
1
1
1
1
1
1
255
158
125
255
158
125
170
0
0
170
0
0
170
0
0
170
0
0
170
0
0
170
0
0
170
0
0
170
0
0
170
0
0
170
0
0
255
158
125
1
1
1
1
1
1
1
1
1
1
1
1
1
1
1
1
1
1
170
0
0
170
0
0
170
0
0
170
0
0
170
0
0
170
0
0
170
0
0
170
0
0
170
0
0
170
0
0
1
1
1
1
1
1
1
1
1
1
1
1
1
1
1
1
1
1
1
1
1
1
1
1
1
1
1
255
255
0
255
255
0
255
255
0
255
255
0
255
255
0
255
255
0
1
1
1
1
1
1
1
1
1
1
1
1
1
1
1
1
1
1
1
1
1
1
1
1
1
1
1
1
1
1
1
1
1
170
0
0
170
0
0
170
0
0
170
0
0
170
0
0
170
0
0
1
1
1
1
1
1
1
1
1
1
1
1
1
1
1
1
1
1
1
1
1
1
1
1
1
1
1
1
1
1
1
1
1
255
255
0
255
255
0
255
255
0
255
255
0
255
255
0
255
255
0
1
1
1
1
1
1
1
1
1
1
1
1
1
1
1
1
1
1
1
1
1
1
1
1
1
1
1
1
1
1
0
65
255
0
65
255
0
65
255
0
65
255
0
65
255
0
65
255
0
65
255
0
65
255
1
1
1
1
1
1
1
1
1
1
1
1
1
1
1
1
1
1
1
1
1
1
1
1
1
1
1
0
65
255
0
65
255
0
65
255
0
65
255
0
65
255
0
65
255
0
65
255
0
65
255
1
1
1
1
1
1
1
1
1
1
1
1
1
1
1
1
1
1
1
1
1
1
1
1
1
1
1
0
65
255
0
65
255
1
1
1
1
1
1
1
1
1
1
1
1
0
65
255
0
65
255
1
1
1
1
1
1
1
1
1
1
1
1
1
1
1
1
1
1
1
1
1
65
48
0
65
48
0
0
65
255
0
65
255
1
1
1
1
1
1
1
1
1
1
1
1
0
65
255
0
65
255
65
48
0
65
48
0
1
1
1
1
1
1
1
1
1
1
1
1
1
1
1
65
48
0
65
48
0
65
48
0
65
48
0
1
1
1
1
1
1
1
1
1
1
1
1
65
48
0
65
48
0
65
48
0
65
48
0
1
1
1
1
1
1
